<mxfile host="www.draw.io" modified="2020-01-04T06:10:42.811Z" agent="Mozilla/5.0 (Windows NT 6.2; Win64; x64) AppleWebKit/537.36 (KHTML, like Gecko) Chrome/79.0.3945.88 Safari/537.36" etag="6WVtDV0sJYChlt3-gSOX" version="12.4.8" type="github">
  <diagram id="KFPWuCin9HiiDJ0GUUOY" name="Page-1">
    <mxGraphModel dx="773" dy="427" grid="1" gridSize="10" guides="1" tooltips="1" connect="1" arrows="1" fold="1" page="1" pageScale="1" pageWidth="827" pageHeight="1169" math="0" shadow="0">
      <root>
        <mxCell id="0"/>
        <mxCell id="1" parent="0"/>
        <mxCell id="gE9azoA6skdPwoxY1DG7-1" value="1" style="rounded=0;whiteSpace=wrap;html=1;" vertex="1" parent="1">
          <mxGeometry x="20" y="87" width="40" height="20" as="geometry"/>
        </mxCell>
        <mxCell id="gE9azoA6skdPwoxY1DG7-3" value="2" style="rounded=0;whiteSpace=wrap;html=1;" vertex="1" parent="1">
          <mxGeometry x="60" y="87" width="40" height="20" as="geometry"/>
        </mxCell>
        <mxCell id="gE9azoA6skdPwoxY1DG7-4" value="....." style="rounded=0;whiteSpace=wrap;html=1;" vertex="1" parent="1">
          <mxGeometry x="100" y="87" width="40" height="20" as="geometry"/>
        </mxCell>
        <mxCell id="gE9azoA6skdPwoxY1DG7-5" value="10" style="rounded=0;whiteSpace=wrap;html=1;" vertex="1" parent="1">
          <mxGeometry x="140" y="87" width="40" height="20" as="geometry"/>
        </mxCell>
        <mxCell id="gE9azoA6skdPwoxY1DG7-14" value="B to A" style="text;html=1;strokeColor=none;fillColor=none;align=center;verticalAlign=middle;whiteSpace=wrap;rounded=0;" vertex="1" parent="1">
          <mxGeometry x="20" y="60" width="40" height="20" as="geometry"/>
        </mxCell>
        <mxCell id="gE9azoA6skdPwoxY1DG7-20" value="1" style="rounded=0;whiteSpace=wrap;html=1;" vertex="1" parent="1">
          <mxGeometry x="326" y="60" width="40" height="20" as="geometry"/>
        </mxCell>
        <mxCell id="gE9azoA6skdPwoxY1DG7-21" value="2" style="rounded=0;whiteSpace=wrap;html=1;" vertex="1" parent="1">
          <mxGeometry x="366" y="60" width="40" height="20" as="geometry"/>
        </mxCell>
        <mxCell id="gE9azoA6skdPwoxY1DG7-22" value="....." style="rounded=0;whiteSpace=wrap;html=1;" vertex="1" parent="1">
          <mxGeometry x="406" y="60" width="40" height="20" as="geometry"/>
        </mxCell>
        <mxCell id="gE9azoA6skdPwoxY1DG7-23" value="10" style="rounded=0;whiteSpace=wrap;html=1;" vertex="1" parent="1">
          <mxGeometry x="446" y="60" width="40" height="20" as="geometry"/>
        </mxCell>
        <mxCell id="gE9azoA6skdPwoxY1DG7-24" value="to A" style="text;html=1;strokeColor=none;fillColor=none;align=center;verticalAlign=middle;whiteSpace=wrap;rounded=0;" vertex="1" parent="1">
          <mxGeometry x="326" y="33" width="40" height="20" as="geometry"/>
        </mxCell>
        <mxCell id="gE9azoA6skdPwoxY1DG7-25" value="1" style="rounded=0;whiteSpace=wrap;html=1;" vertex="1" parent="1">
          <mxGeometry x="326" y="114" width="40" height="20" as="geometry"/>
        </mxCell>
        <mxCell id="gE9azoA6skdPwoxY1DG7-26" value="2" style="rounded=0;whiteSpace=wrap;html=1;" vertex="1" parent="1">
          <mxGeometry x="366" y="114" width="40" height="20" as="geometry"/>
        </mxCell>
        <mxCell id="gE9azoA6skdPwoxY1DG7-27" value="....." style="rounded=0;whiteSpace=wrap;html=1;" vertex="1" parent="1">
          <mxGeometry x="406" y="114" width="40" height="20" as="geometry"/>
        </mxCell>
        <mxCell id="gE9azoA6skdPwoxY1DG7-28" value="10" style="rounded=0;whiteSpace=wrap;html=1;" vertex="1" parent="1">
          <mxGeometry x="446" y="114" width="40" height="20" as="geometry"/>
        </mxCell>
        <mxCell id="gE9azoA6skdPwoxY1DG7-29" value="to B" style="text;html=1;strokeColor=none;fillColor=none;align=center;verticalAlign=middle;whiteSpace=wrap;rounded=0;" vertex="1" parent="1">
          <mxGeometry x="326" y="87" width="40" height="20" as="geometry"/>
        </mxCell>
        <mxCell id="gE9azoA6skdPwoxY1DG7-31" value="" style="endArrow=classic;html=1;exitX=1;exitY=0.5;exitDx=0;exitDy=0;" edge="1" parent="1" source="gE9azoA6skdPwoxY1DG7-5">
          <mxGeometry width="50" height="50" relative="1" as="geometry">
            <mxPoint x="340" y="60" as="sourcePoint"/>
            <mxPoint x="220" y="97" as="targetPoint"/>
          </mxGeometry>
        </mxCell>
        <mxCell id="gE9azoA6skdPwoxY1DG7-32" value="imService" style="rounded=0;whiteSpace=wrap;html=1;" vertex="1" parent="1">
          <mxGeometry x="220" y="80" width="60" height="30" as="geometry"/>
        </mxCell>
        <mxCell id="gE9azoA6skdPwoxY1DG7-33" value="" style="endArrow=classic;html=1;exitX=1;exitY=0.5;exitDx=0;exitDy=0;" edge="1" parent="1" source="gE9azoA6skdPwoxY1DG7-32">
          <mxGeometry width="50" height="50" relative="1" as="geometry">
            <mxPoint x="20" y="230" as="sourcePoint"/>
            <mxPoint x="330" y="70" as="targetPoint"/>
          </mxGeometry>
        </mxCell>
        <mxCell id="gE9azoA6skdPwoxY1DG7-34" value="" style="endArrow=classic;html=1;exitX=1;exitY=0.5;exitDx=0;exitDy=0;" edge="1" parent="1" source="gE9azoA6skdPwoxY1DG7-32">
          <mxGeometry width="50" height="50" relative="1" as="geometry">
            <mxPoint x="290" y="105" as="sourcePoint"/>
            <mxPoint x="330" y="110" as="targetPoint"/>
          </mxGeometry>
        </mxCell>
      </root>
    </mxGraphModel>
  </diagram>
</mxfile>
